<svg version="1.1" xmlns="http://www.w3.org/2000/svg" xmlns:xlink="http://www.w3.org/1999/xlink">
    <symbol id="cart" viewBox="0 0 16 16" >
        <path d="M0 1.5C0 1.36739 0.0526784 1.24021 0.146447 1.14645C0.240215 1.05268 0.367392 1 0.5 1H2C2.11153 1.00003 2.21985 1.03735 2.30773 1.10602C2.39561 1.1747 2.45801 1.27078 2.485 1.379L2.89 3H14.5C14.5734 3.00007 14.6459 3.0163 14.7124 3.04755C14.7788 3.0788 14.8375 3.12429 14.8844 3.1808C14.9313 3.23731 14.9651 3.30345 14.9835 3.37452C15.002 3.44558 15.0045 3.51984 14.991 3.592L13.491 11.592C13.4696 11.7066 13.4087 11.8101 13.3191 11.8846C13.2294 11.9591 13.1166 11.9999 13 12H4C3.88343 11.9999 3.77057 11.9591 3.68091 11.8846C3.59126 11.8101 3.53045 11.7066 3.509 11.592L2.01 3.607L1.61 2H0.5C0.367392 2 0.240215 1.94732 0.146447 1.85355C0.0526784 1.75979 0 1.63261 0 1.5ZM5 12C4.46957 12 3.96086 12.2107 3.58579 12.5858C3.21071 12.9609 3 13.4696 3 14C3 14.5304 3.21071 15.0391 3.58579 15.4142C3.96086 15.7893 4.46957 16 5 16C5.53043 16 6.03914 15.7893 6.41421 15.4142C6.78929 15.0391 7 14.5304 7 14C7 13.4696 6.78929 12.9609 6.41421 12.5858C6.03914 12.2107 5.53043 12 5 12ZM12 12C11.4696 12 10.9609 12.2107 10.5858 12.5858C10.2107 12.9609 10 13.4696 10 14C10 14.5304 10.2107 15.0391 10.5858 15.4142C10.9609 15.7893 11.4696 16 12 16C12.5304 16 13.0391 15.7893 13.4142 15.4142C13.7893 15.0391 14 14.5304 14 14C14 13.4696 13.7893 12.9609 13.4142 12.5858C13.0391 12.2107 12.5304 12 12 12ZM5 13C5.26522 13 5.51957 13.1054 5.70711 13.2929C5.89464 13.4804 6 13.7348 6 14C6 14.2652 5.89464 14.5196 5.70711 14.7071C5.51957 14.8946 5.26522 15 5 15C4.73478 15 4.48043 14.8946 4.29289 14.7071C4.10536 14.5196 4 14.2652 4 14C4 13.7348 4.10536 13.4804 4.29289 13.2929C4.48043 13.1054 4.73478 13 5 13ZM12 13C12.2652 13 12.5196 13.1054 12.7071 13.2929C12.8946 13.4804 13 13.7348 13 14C13 14.2652 12.8946 14.5196 12.7071 14.7071C12.5196 14.8946 12.2652 15 12 15C11.7348 15 11.4804 14.8946 11.2929 14.7071C11.1054 14.5196 11 14.2652 11 14C11 13.7348 11.1054 13.4804 11.2929 13.2929C11.4804 13.1054 11.7348 13 12 13Z" />
    </symbol>


    <symbol id="bars" viewBox="0 0 20 20" >
        <path d="M3 15H17V13H3V15ZM3 5V7H17V5H3ZM3 11H17V9H3V11Z" />
    </symbol>

    <symbol id="select-arrow" viewBox="1 1 14 14" >
        <path fill-rule="evenodd" clip-rule="evenodd" d="M1.64598 4.64599C1.69242 4.59943 1.7476 4.56249 1.80834 4.53728C1.86909 4.51207 1.93421 4.4991 1.99998 4.4991C2.06575 4.4991 2.13087 4.51207 2.19161 4.53728C2.25236 4.56249 2.30753 4.59943 2.35398 4.64599L7.99998 10.293L13.646 4.64599C13.6925 4.59951 13.7477 4.56263 13.8084 4.53747C13.8691 4.51231 13.9342 4.49936 14 4.49936C14.0657 4.49936 14.1308 4.51231 14.1916 4.53747C14.2523 4.56263 14.3075 4.59951 14.354 4.64599C14.4005 4.69248 14.4373 4.74767 14.4625 4.80841C14.4877 4.86915 14.5006 4.93425 14.5006 4.99999C14.5006 5.06574 14.4877 5.13084 14.4625 5.19158C14.4373 5.25232 14.4005 5.30751 14.354 5.35399L8.35398 11.354C8.30753 11.4006 8.25236 11.4375 8.19161 11.4627C8.13087 11.4879 8.06575 11.5009 7.99998 11.5009C7.93421 11.5009 7.86909 11.4879 7.80834 11.4627C7.7476 11.4375 7.69242 11.4006 7.64598 11.354L1.64598 5.35399C1.59942 5.30755 1.56247 5.25237 1.53727 5.19163C1.51206 5.13088 1.49908 5.06576 1.49908 4.99999C1.49908 4.93423 1.51206 4.8691 1.53727 4.80836C1.56247 4.74761 1.59942 4.69244 1.64598 4.64599Z"/>
    </symbol>

    <symbol id="check" viewBox="1 1 14 14" xmlns="http://www.w3.org/2000/svg">
        <path d="M5.87865 13.186L1.63599 8.94334L3.52265 7.05667L5.87865 9.41934L12.4773 2.814L14.364 4.70067L5.87865 13.186Z" />
    </symbol>

    <symbol id="times" viewBox="5 5 22 22" xmlns="http://www.w3.org/2000/svg">
        <path d="M7.21903 5.78103L5.78003 7.22003L14.563 16L5.78003 24.781L7.22003 26.22L16 17.437L24.781 26.219L26.219 24.781L17.437 16L26.219 7.21903L24.78 5.78003L16 14.563L7.21903 5.78103Z" />
    </symbol>

    <symbol id="minus" viewBox="4 4 16 16"  xmlns="http://www.w3.org/2000/svg">
        <path d="M5 11H19V13H5V11Z" />
    </symbol>

    <symbol id="plus" viewBox="4 4 16 16" xmlns="http://www.w3.org/2000/svg">
        <path d="M19 11H13V5H11V11H5V13H11V19H13V13H19V11Z" />
    </symbol>

    <symbol id="question" viewBox="0 0 20 20" xmlns="http://www.w3.org/2000/svg">
        <path d="M10 1.25C5.16797 1.25 1.25 5.16797 1.25 10C1.25 14.832 5.16797 18.75 10 18.75C14.832 18.75 18.75 14.832 18.75 10C18.75 5.16797 14.832 1.25 10 1.25ZM10 15.0781C9.56836 15.0781 9.21875 14.7285 9.21875 14.2969C9.21875 13.8652 9.56836 13.5156 10 13.5156C10.4316 13.5156 10.7812 13.8652 10.7812 14.2969C10.7812 14.7285 10.4316 15.0781 10 15.0781ZM11.2285 10.791C11.0516 10.8593 10.8994 10.9793 10.7918 11.1354C10.6841 11.2915 10.626 11.4764 10.625 11.666V12.1094C10.625 12.1953 10.5547 12.2656 10.4688 12.2656H9.53125C9.44531 12.2656 9.375 12.1953 9.375 12.1094V11.6895C9.375 11.2383 9.50586 10.793 9.76367 10.4219C10.0156 10.0586 10.3672 9.78125 10.7812 9.62305C11.4453 9.36719 11.875 8.81055 11.875 8.20312C11.875 7.3418 11.0332 6.64062 10 6.64062C8.9668 6.64062 8.125 7.3418 8.125 8.20312V8.35156C8.125 8.4375 8.05469 8.50781 7.96875 8.50781H7.03125C6.94531 8.50781 6.875 8.4375 6.875 8.35156V8.20312C6.875 7.43555 7.21094 6.71875 7.82031 6.18555C8.40625 5.67188 9.17969 5.39062 10 5.39062C10.8203 5.39062 11.5937 5.67383 12.1797 6.18555C12.7891 6.71875 13.125 7.43555 13.125 8.20312C13.125 9.33203 12.3809 10.3477 11.2285 10.791Z" />
    </symbol>

    <symbol id="card" viewBox="0 0 68 68" xmlns="http://www.w3.org/2000/svg">
        <path d="M11.3334 11.3333H56.6668V17H11.3334V22.6666H56.6668V34H11.3334V51H56.6668V56.6666H5.66675V11.3333H11.3334ZM62.3334 11.3333H56.6668V56.6666H62.3334V11.3333Z"/>
    </symbol>

    <symbol id="transfer" viewBox="0 0 77 77" xmlns="http://www.w3.org/2000/svg">
        <path d="M3.20825 9.625H54.5416V16.0417H9.62492V22.4583H54.5416V35.2917H9.62492V48.125H54.5416V54.5417H3.20825V9.625ZM60.9582 9.625H54.5416V54.5417H60.9582V9.625ZM16.0416 60.9583H67.3749V67.375H16.0416V60.9583ZM73.7916 22.4583H67.3749V67.375H73.7916V22.4583Z" />
    </symbol>

    <symbol id="warning" viewBox="2 1 9 12" xmlns="http://www.w3.org/2000/svg">
        <path d="M8.01671 2.99869L11.6464 9.04423C12.168 9.91253 11.9118 11.0549 11.0739 11.5955C10.7926 11.7776 10.4648 11.8746 10.1297 11.875H2.86979C1.88342 11.875 1.08337 11.0462 1.08337 10.023C1.08337 9.6769 1.17708 9.33836 1.35312 9.04423L4.98337 2.99869C5.50446 2.1304 6.60621 1.86444 7.44417 2.40503C7.676 2.55453 7.87208 2.75765 8.01671 2.99869V2.99869ZM6.81421 3.45315C6.7479 3.4105 6.67363 3.38173 6.59588 3.36858C6.51814 3.35544 6.43854 3.35819 6.36189 3.37667C6.28525 3.39515 6.21314 3.42897 6.14993 3.4761C6.08672 3.52322 6.03372 3.58268 5.99412 3.65086L2.36442 9.69748C2.30545 9.79603 2.27438 9.90874 2.2745 10.0236C2.2745 10.3648 2.541 10.6411 2.87033 10.6411H10.1292C10.2408 10.6411 10.3497 10.6086 10.4439 10.5479C10.5792 10.458 10.6745 10.3195 10.7101 10.1611C10.7458 10.0026 10.7189 9.83658 10.6351 9.69748L7.00542 3.65086C6.95781 3.57125 6.89258 3.50361 6.81475 3.45315H6.81421ZM6.50004 9.70832C6.35638 9.70832 6.21861 9.65125 6.11702 9.54967C6.01544 9.44809 5.95837 9.31031 5.95837 9.16665C5.95837 9.02299 6.01544 8.88522 6.11702 8.78364C6.21861 8.68205 6.35638 8.62498 6.50004 8.62498C6.6437 8.62498 6.78147 8.68205 6.88306 8.78364C6.98464 8.88522 7.04171 9.02299 7.04171 9.16665C7.04171 9.31031 6.98464 9.44809 6.88306 9.54967C6.78147 9.65125 6.6437 9.70832 6.50004 9.70832ZM6.50004 4.83332C6.6437 4.83332 6.78147 4.89039 6.88306 4.99197C6.98464 5.09355 7.04171 5.23133 7.04171 5.37498V7.54165C7.04171 7.68531 6.98464 7.82309 6.88306 7.92467C6.78147 8.02625 6.6437 8.08332 6.50004 8.08332C6.35638 8.08332 6.21861 8.02625 6.11702 7.92467C6.01544 7.82309 5.95837 7.68531 5.95837 7.54165V5.37498C5.95837 5.23133 6.01544 5.09355 6.11702 4.99197C6.21861 4.89039 6.35638 4.83332 6.50004 4.83332V4.83332Z" />
    </symbol>

    <symbol id="cog" viewBox="0 0 17 17" xmlns="http://www.w3.org/2000/svg">
        <path d="M8.49996 11.3334C10.0625 11.3334 11.3333 10.0626 11.3333 8.50002C11.3333 6.93744 10.0625 5.66669 8.49996 5.66669C6.93738 5.66669 5.66663 6.93744 5.66663 8.50002C5.66663 10.0626 6.93738 11.3334 8.49996 11.3334ZM8.49996 7.08335C9.26779 7.08335 9.91663 7.73219 9.91663 8.50002C9.91663 9.26785 9.26779 9.91669 8.49996 9.91669C7.73213 9.91669 7.08329 9.26785 7.08329 8.50002C7.08329 7.73219 7.73213 7.08335 8.49996 7.08335Z" />
        <path d="M2.01515 11.4297L2.72349 12.6551C3.09961 13.3046 4.00486 13.5483 4.65724 13.1722L5.03194 12.9554C5.44174 13.2778 5.89357 13.5428 6.37494 13.7431V14.1667C6.37494 14.948 7.01032 15.5834 7.79161 15.5834H9.20828C9.98957 15.5834 10.6249 14.948 10.6249 14.1667V13.7431C11.1062 13.5428 11.5579 13.278 11.9679 12.9561L12.3427 13.1729C12.9964 13.5483 13.8996 13.3061 14.2771 12.6551L14.9847 11.4304C15.1725 11.1051 15.2234 10.7185 15.1263 10.3557C15.0292 9.99282 14.792 9.68335 14.4669 9.49523L14.1092 9.2884C14.1853 8.76604 14.1853 8.23542 14.1092 7.71306L14.4669 7.50623C14.7919 7.31798 15.0289 7.00851 15.126 6.64572C15.2231 6.28293 15.1723 5.89644 14.9847 5.57106L14.2771 4.34635C13.901 3.69469 12.9964 3.45031 12.3427 3.82785L11.9679 4.0446C11.5581 3.72225 11.1063 3.45725 10.6249 3.25694V2.83335C10.6249 2.05206 9.98957 1.41669 9.20828 1.41669H7.79161C7.01032 1.41669 6.37494 2.05206 6.37494 2.83335V3.25694C5.89373 3.45728 5.44194 3.72202 5.03194 4.0439L4.65724 3.82715C4.00274 3.45102 3.0989 3.69469 2.72278 4.34565L2.01515 5.57035C1.82743 5.89569 1.77652 6.28224 1.87361 6.64508C1.9707 7.00793 2.20784 7.3174 2.53294 7.50552L2.89065 7.71235C2.81432 8.23445 2.81432 8.76488 2.89065 9.28698L2.53294 9.49381C2.20793 9.6822 1.9709 9.9918 1.87383 10.3547C1.77677 10.7176 1.82759 11.1042 2.01515 11.4297ZM4.37107 9.4761C4.29109 9.15689 4.25041 8.8291 4.24994 8.50002C4.24994 8.17277 4.29103 7.8441 4.37036 7.52394C4.40772 7.37471 4.39543 7.21738 4.33536 7.07576C4.27529 6.93414 4.1707 6.81596 4.03744 6.7391L3.24199 6.27869L3.9489 5.05398L4.75994 5.5229C4.89221 5.59943 5.04573 5.631 5.19746 5.61286C5.34919 5.59473 5.49094 5.52786 5.60144 5.42231C6.08065 4.96654 6.65851 4.62743 7.29011 4.43135C7.43519 4.38706 7.56222 4.29736 7.65251 4.17545C7.74279 4.05355 7.79155 3.90588 7.79161 3.75419V2.83335H9.20828V3.75419C9.20834 3.90588 9.2571 4.05355 9.34738 4.17545C9.43766 4.29736 9.56469 4.38706 9.70978 4.43135C10.3413 4.62771 10.9191 4.96678 11.3984 5.42231C11.5091 5.52766 11.6508 5.59438 11.8025 5.61251C11.9541 5.63064 12.1076 5.5992 12.2399 5.5229L13.0503 5.05469L13.7586 6.2794L12.9624 6.7391C12.8293 6.81604 12.7248 6.93424 12.6647 7.07583C12.6046 7.21742 12.5923 7.37471 12.6295 7.52394C12.7089 7.8441 12.7499 8.17277 12.7499 8.50002C12.7499 8.82656 12.7089 9.15523 12.6288 9.4761C12.5916 9.62541 12.6041 9.78276 12.6643 9.92436C12.7245 10.066 12.8291 10.1841 12.9624 10.2609L13.7579 10.7206L13.051 11.9454L12.2399 11.4771C12.1077 11.4005 11.9542 11.3689 11.8024 11.387C11.6506 11.4051 11.5089 11.4721 11.3984 11.5777C10.9192 12.0335 10.3414 12.3726 9.70978 12.5687C9.56469 12.613 9.43766 12.7027 9.34738 12.8246C9.2571 12.9465 9.20834 13.0942 9.20828 13.2459L9.20969 14.1667H7.79161V13.2459C7.79155 13.0942 7.74279 12.9465 7.65251 12.8246C7.56222 12.7027 7.43519 12.613 7.29011 12.5687C6.65863 12.3723 6.08083 12.0333 5.60144 11.5777C5.49116 11.4718 5.34931 11.4047 5.19744 11.3867C5.04557 11.3686 4.89197 11.4007 4.75994 11.4779L3.94961 11.9468L3.24128 10.7221L4.03744 10.2609C4.17075 10.1841 4.27541 10.066 4.3356 9.92436C4.39579 9.78276 4.40824 9.62541 4.37107 9.4761Z" />
    </symbol>

    <symbol id="danger" viewBox="1 1 15 15" xmlns="http://www.w3.org/2000/svg">
        <path d="M11.1421 2.125H5.85792L2.125 5.85792V11.1421L5.85792 14.875H11.1421L14.875 11.1421V5.85792L11.1421 2.125ZM13.4583 10.5542L10.5542 13.4583H6.44583L3.54167 10.5542V6.44583L6.44583 3.54167H10.5542L13.4583 6.44583V10.5542ZM10.5046 5.49667L8.5 7.50125L6.49542 5.49667L5.49667 6.49542L7.50125 8.5L5.49667 10.5046L6.49542 11.5033L8.5 9.49875L10.5046 11.5033L11.5033 10.5046L9.49875 8.5L11.5033 6.49542L10.5046 5.49667Z" />
    </symbol>

    <symbol id="ok-circle"  viewBox="-1 -1 18 18" xmlns="http://www.w3.org/2000/svg">
        <path d="M8 0C3.58173 0 0 3.58173 0 8C0 12.4183 3.58173 16 8 16C12.4183 16 16 12.4183 16 8C16 3.58173 12.4183 0 8 0ZM8 1.73828C11.4583 1.73828 14.2607 4.54261 14.2607 8C14.2607 11.4574 11.4583 14.2607 8 14.2607C4.54173 14.2607 1.73925 11.4574 1.73925 8C1.73927 4.54261 4.54173 1.73828 8 1.73828ZM11.0654 4.20117L6.42871 8.83887L4.9248 7.33496L3.44921 8.80957L4.95312 10.3135L6.43847 11.7988L7.91309 10.3232L12.5508 5.68652L11.0654 4.20117Z" />
    </symbol>

    <symbol id="envelope" viewBox="-1 -1 24 24" xmlns="http://www.w3.org/2000/svg">
        <path d="M0 2.68555V5.77796L11 12.05L22 5.77796V2.68555H0ZM0 7.75587V16.8236L5.6034 10.9503L0 7.75587ZM22 7.75587L16.3966 10.9503L22 16.8236V7.75587ZM7.14221 11.8285L0 19.3145H22L14.8578 11.8285L11 14.028L7.14221 11.8285Z" />
    </symbol>

    <symbol id="admin" viewBox="1 0 37 35" xmlns="http://www.w3.org/2000/svg">
        <path fill-rule="evenodd" clip-rule="evenodd" d="M19.599 26.4557C16.4606 26.4557 13.272 24.5832 11.4111 22.1047C2.48326 22.1047 2.21338 34.9235 2.21338 34.9235H36.9825C36.9825 34.9235 37.6833 22.0479 27.6433 22.0479C25.7846 24.5569 22.7375 26.4557 19.599 26.4557Z" />
        <path fill-rule="evenodd" clip-rule="evenodd" d="M27.0773 11.0885C27.0773 14.7766 23.7278 21.8291 19.5925 21.8291C15.4637 21.8291 12.1119 14.7744 12.1119 11.0885C12.1119 7.40253 15.4615 4.41003 19.5925 4.41003C23.7278 4.41222 27.0773 7.40472 27.0773 11.0885Z" />
        <path fill-rule="evenodd" clip-rule="evenodd" d="M30.4161 7.9056C30.4161 7.21435 29.4584 6.65653 28.2701 6.65216V5.2281C28.2701 5.01591 28.3506 0.0480957 19.6186 0.0480957C10.891 0.0480957 10.9715 5.01591 10.9715 5.2281V6.70247C10.9497 6.70247 10.9323 6.69591 10.9127 6.69591C9.7309 6.69591 8.77979 7.24497 8.77979 7.92528V13.9497C8.77979 14.6256 9.73308 15.1768 10.9127 15.1768C12.0924 15.1768 13.05 14.6256 13.05 13.9497V7.92528C13.05 7.83122 12.9913 7.74591 12.9564 7.65841V6.0156C12.9564 5.86466 12.3296 2.11528 19.6186 2.11528C26.9098 2.11528 26.1524 5.86466 26.1524 6.0156V7.74591C26.1393 7.8006 26.098 7.84872 26.098 7.9056V14.0678C26.098 14.7612 27.0621 15.3234 28.257 15.3234C28.2831 15.3234 28.3027 15.3147 28.3288 15.3147V17.5656H26.1872V19.6875H30.4378L30.4161 7.9056Z" />
    </symbol>

    <symbol id="user" viewBox="3 4 34 32" xmlns="http://www.w3.org/2000/svg">
        <path d="M25.9625 15.8413C25.9625 15.8413 27.025 11.3441 25.9625 9.81945C24.9 8.29732 24.4775 7.28257 22.1413 6.5561C19.805 5.82964 20.6563 5.97442 18.9575 6.04873C17.2575 6.12304 15.8425 7.06476 15.8425 7.57342C15.8425 7.57342 14.78 7.64517 14.3575 8.08079C13.9325 8.51642 13.225 10.5459 13.225 11.0533C13.225 11.5607 13.5788 14.9739 13.9325 15.6978L13.5113 15.8439C13.1563 20.0502 14.9238 20.5589 14.9238 20.5589C15.5613 24.4769 16.1988 22.8088 16.1988 23.8235C16.1988 24.8383 15.5613 24.4769 15.5613 24.4769C15.5613 24.4769 14.9963 26.0721 13.5813 26.6525C12.1663 27.2316 4.31126 30.3502 3.67251 31.0036C3.03251 31.6571 3.10501 34.7039 3.10501 34.7039H36.7888C36.7888 34.7039 36.8638 31.6584 36.2238 31.0036C35.5863 30.3502 27.73 27.2316 26.315 26.6525C24.9 26.0721 24.335 24.4769 24.335 24.4769C24.335 24.4769 23.6975 24.8383 23.6975 23.8235C23.6975 22.8088 24.335 24.4769 24.9725 20.5589C24.9725 20.5589 26.7388 20.0502 26.385 15.8439H25.96L25.9625 15.8413Z" />
    </symbol>

    <symbol id="download" viewBox="2 2 20 20" xmlns="http://www.w3.org/2000/svg">
        <path d="M19 9H15V3H9V9H5L12 17L19 9ZM4 19H20V21H4V19Z" />
    </symbol>

    <symbol id="list" viewBox="3 3 18 18"  xmlns="http://www.w3.org/2000/svg">
        <path d="M4 6H6V8H4V6ZM4 11H6V13H4V11ZM4 16H6V18H4V16ZM20 8V6H8.023V8H18.8H20ZM8 11H20V13H8V11ZM8 16H20V18H8V16Z" />
    </symbol>

    <symbol id="logout" viewBox="1 1 22 22" xmlns="http://www.w3.org/2000/svg">
        <path d="M5 5H12V3H3V21H12V19H5V5Z" />
        <path d="M21 12L17 8V11H9V13H17V16L21 12Z" />
    </symbol>

    <symbol id="money" viewBox="0 0 24 24"  xmlns="http://www.w3.org/2000/svg">
        <path d="M23 7V20H4V18H21V7H23ZM19 16H1V4H19V16ZM13 10C13 8.34 11.66 7 10 7C8.34 7 7 8.34 7 10C7 11.66 8.34 13 10 13C11.66 13 13 11.66 13 10Z" />
    </symbol>

    <symbol id="dollar" viewBox="2 2 16 17" xmlns="http://www.w3.org/2000/svg">
        <path d="M10.6 9.5C10.2 9.4 9.8 9.2 9.5 8.9C9.2 8.8 9.1 8.5 9.1 8.3C9.1 8.1 9.2 7.8 9.4 7.7C9.7 7.5 10 7.3 10.3 7.4C10.9 7.4 11.4 7.7 11.7 8.1L12.6 6.9C12.3 6.6 12 6.4 11.7 6.2C11.4 6 11 5.9 10.6 5.9V4.5H9.4V5.9C8.9 6 8.4 6.3 8 6.7C7.6 7.2 7.3 7.8 7.4 8.4C7.4 9 7.6 9.6 8 10C8.5 10.5 9.2 10.8 9.8 11.1C10.1 11.2 10.5 11.4 10.8 11.6C11 11.8 11.1 12.1 11.1 12.4C11.1 12.7 11 13 10.8 13.3C10.5 13.6 10.1 13.7 9.8 13.7C9.4 13.7 8.9 13.6 8.6 13.3C8.3 13.1 8 12.8 7.8 12.5L6.8 13.6C7.1 14 7.4 14.3 7.8 14.6C8.3 14.9 8.9 15.2 9.5 15.2V16.5H10.6V15C11.2 14.9 11.7 14.6 12.1 14.2C12.6 13.7 12.9 12.9 12.9 12.2C12.9 11.6 12.7 10.9 12.2 10.5C11.7 10 11.2 9.7 10.6 9.5V9.5ZM10 2.5C5.6 2.5 2 6.1 2 10.5C2 14.9 5.6 18.5 10 18.5C14.4 18.5 18 14.9 18 10.5C18 6.1 14.4 2.5 10 2.5ZM10 17.4C6.2 17.4 3.1 14.3 3.1 10.5C3.1 6.7 6.2 3.6 10 3.6C13.8 3.6 16.9 6.7 16.9 10.5C16.9 14.3 13.8 17.4 10 17.4V17.4Z"/>
    </symbol>

    <symbol id="clock" viewBox="0 0 16 17"  xmlns="http://www.w3.org/2000/svg">
        <g clip-path="url(#clip0)">
            <path d="M8 4C8 3.86739 7.94732 3.74021 7.85355 3.64645C7.75979 3.55268 7.63261 3.5 7.5 3.5C7.36739 3.5 7.24021 3.55268 7.14645 3.64645C7.05268 3.74021 7 3.86739 7 4V9.5C7.00003 9.58813 7.02335 9.67469 7.06761 9.75091C7.11186 9.82712 7.17547 9.89029 7.252 9.934L10.752 11.934C10.8669 11.9961 11.0014 12.0108 11.127 11.9749C11.2525 11.9391 11.3591 11.8556 11.4238 11.7422C11.4886 11.6288 11.5065 11.4946 11.4736 11.3683C11.4408 11.2419 11.3598 11.1334 11.248 11.066L8 9.21V4Z" />
            <path d="M8 16.5C10.1217 16.5 12.1566 15.6571 13.6569 14.1569C15.1571 12.6566 16 10.6217 16 8.5C16 6.37827 15.1571 4.34344 13.6569 2.84315C12.1566 1.34285 10.1217 0.5 8 0.5C5.87827 0.5 3.84344 1.34285 2.34315 2.84315C0.842855 4.34344 0 6.37827 0 8.5C0 10.6217 0.842855 12.6566 2.34315 14.1569C3.84344 15.6571 5.87827 16.5 8 16.5V16.5ZM15 8.5C15 10.3565 14.2625 12.137 12.9497 13.4497C11.637 14.7625 9.85652 15.5 8 15.5C6.14348 15.5 4.36301 14.7625 3.05025 13.4497C1.7375 12.137 1 10.3565 1 8.5C1 6.64348 1.7375 4.86301 3.05025 3.55025C4.36301 2.2375 6.14348 1.5 8 1.5C9.85652 1.5 11.637 2.2375 12.9497 3.55025C14.2625 4.86301 15 6.64348 15 8.5V8.5Z" />
        </g>
        <defs>
            <clipPath id="clip0">
                <rect width="16" height="16" fill="white" transform="translate(0 0.5)"/>
            </clipPath>
        </defs>
    </symbol>

    <symbol id="shield" viewBox="0 0 16 17" xmlns="http://www.w3.org/2000/svg">
        <g clip-path="url(#clip0)">
            <path d="M5.33801 2.09C4.38559 2.35248 3.43965 2.6379 2.50101 2.946C2.41529 2.97376 2.3391 3.02504 2.28111 3.09399C2.22312 3.16295 2.18567 3.2468 2.17301 3.336C1.61901 7.493 2.89901 10.526 4.42601 12.524C5.07252 13.3784 5.84341 14.1311 6.71301 14.757C7.05901 15.001 7.36501 15.177 7.60601 15.29C7.72601 15.347 7.82401 15.385 7.89901 15.408C7.93181 15.4195 7.96562 15.4279 8.00001 15.433C8.03398 15.4275 8.06743 15.4191 8.10001 15.408C8.17601 15.385 8.27401 15.347 8.39401 15.29C8.63401 15.177 8.94101 15 9.28701 14.757C10.1566 14.1311 10.9275 13.3784 11.574 12.524C13.101 10.527 14.381 7.493 13.827 3.336C13.8145 3.24676 13.777 3.16285 13.719 3.09388C13.661 3.02491 13.5848 2.97366 13.499 2.946C12.848 2.733 11.749 2.386 10.662 2.091C9.55201 1.79 8.53101 1.567 8.00001 1.567C7.47001 1.567 6.44801 1.79 5.33801 2.091V2.09ZM5.07201 1.06C6.15701 0.765 7.31001 0.5 8.00001 0.5C8.69001 0.5 9.84301 0.765 10.928 1.06C12.038 1.36 13.157 1.715 13.815 1.93C14.0901 2.02085 14.334 2.18747 14.5187 2.4107C14.7034 2.63394 14.8213 2.90474 14.859 3.192C15.455 7.669 14.072 10.987 12.394 13.182C11.6824 14.121 10.834 14.9479 9.87701 15.635C9.5461 15.8728 9.19549 16.0819 8.82901 16.26C8.54901 16.392 8.24801 16.5 8.00001 16.5C7.75201 16.5 7.45201 16.392 7.17101 16.26C6.80452 16.0819 6.45391 15.8728 6.12301 15.635C5.16603 14.9478 4.31759 14.121 3.60601 13.182C1.92801 10.987 0.545005 7.669 1.14101 3.192C1.17869 2.90474 1.29665 2.63394 1.48132 2.4107C1.666 2.18747 1.9099 2.02085 2.18501 1.93C3.1402 1.61681 4.10281 1.32672 5.07201 1.06V1.06Z" />
            <path d="M10.854 5.64598C10.9006 5.69242 10.9375 5.7476 10.9627 5.80834C10.9879 5.86909 11.0009 5.93421 11.0009 5.99998C11.0009 6.06575 10.9879 6.13087 10.9627 6.19161C10.9375 6.25236 10.9006 6.30753 10.854 6.35398L7.85402 9.35398C7.80758 9.40054 7.7524 9.43748 7.69166 9.46269C7.63091 9.4879 7.56579 9.50087 7.50002 9.50087C7.43425 9.50087 7.36913 9.4879 7.30839 9.46269C7.24764 9.43748 7.19247 9.40054 7.14602 9.35398L5.64602 7.85398C5.59953 7.80749 5.56266 7.7523 5.5375 7.69156C5.51234 7.63082 5.49939 7.56572 5.49939 7.49998C5.49939 7.43423 5.51234 7.36913 5.5375 7.30839C5.56266 7.24766 5.59953 7.19247 5.64602 7.14598C5.69251 7.09949 5.7477 7.06261 5.80844 7.03745C5.86918 7.0123 5.93428 6.99935 6.00002 6.99935C6.06577 6.99935 6.13087 7.0123 6.19161 7.03745C6.25234 7.06261 6.30753 7.09949 6.35402 7.14598L7.50002 8.29298L10.146 5.64598C10.1925 5.59941 10.2476 5.56247 10.3084 5.53727C10.3691 5.51206 10.4343 5.49908 10.5 5.49908C10.5658 5.49908 10.6309 5.51206 10.6917 5.53727C10.7524 5.56247 10.8076 5.59941 10.854 5.64598V5.64598Z" />
        </g>
        <defs>
            <clipPath id="clip0">
                <rect width="16" height="16" fill="white" transform="translate(0 0.5)"/>
            </clipPath>
        </defs>
    </symbol>

    <symbol id="search" viewBox="0 0 16 17" xmlns="http://www.w3.org/2000/svg">
        <g clip-path="url(#clip0)">
            <path d="M15.7812 14.3344L12.6656 11.2188C12.525 11.0781 12.3344 11 12.1344 11H11.625C12.4875 9.89688 13 8.50937 13 7C13 3.40937 10.0906 0.5 6.5 0.5C2.90937 0.5 0 3.40937 0 7C0 10.5906 2.90937 13.5 6.5 13.5C8.00937 13.5 9.39688 12.9875 10.5 12.125V12.6344C10.5 12.8344 10.5781 13.025 10.7188 13.1656L13.8344 16.2812C14.1281 16.575 14.6031 16.575 14.8938 16.2812L15.7781 15.3969C16.0719 15.1031 16.0719 14.6281 15.7812 14.3344ZM6.5 11C4.29063 11 2.5 9.2125 2.5 7C2.5 4.79063 4.2875 3 6.5 3C8.70938 3 10.5 4.7875 10.5 7C10.5 9.20938 8.7125 11 6.5 11Z" />
        </g>
        <defs>
            <clipPath id="clip0">
                <rect width="16" height="16" fill="white" transform="translate(0 0.5)"/>
            </clipPath>
        </defs>
    </symbol>

    <symbol id="health" viewBox="2 2 16 17" xmlns="http://www.w3.org/2000/svg">
        <path fill-rule="evenodd" clip-rule="evenodd" d="M9.02977 2.83337C9.39022 2.61505 9.80357 2.49963 10.225 2.49963C10.6464 2.49963 11.0597 2.61505 11.4202 2.83337L12.2689 3.35253C13.4598 4.08045 14.816 4.24253 16.1785 4.40587C16.6189 4.45878 17.0598 4.51128 17.496 4.58337C17.496 4.58337 17.5056 5.34753 17.4956 5.6942L17.4085 8.67378C17.3335 11.2292 16.1973 13.6521 14.2481 15.413C13.3285 16.2434 12.3773 16.9938 11.2844 17.6171C10.9623 17.7993 10.6011 17.9015 10.2314 17.9151C9.86155 17.9286 9.49391 17.8532 9.15935 17.695C7.89727 17.095 6.77977 16.3342 5.75935 15.413C3.81019 13.6521 2.67394 11.2292 2.59935 8.67378L2.51269 5.70378C2.50227 5.3517 2.51269 4.58337 2.51269 4.58337C2.86685 4.5417 3.22769 4.50712 3.59144 4.47253C5.19685 4.32003 6.8556 4.16253 8.21644 3.33087L9.03019 2.83337H9.02977ZM9.16685 9.1667V6.25003H10.8335V9.1667H13.7502V10.8334H10.8335V13.75H9.16685V10.8334H6.25019V9.1667H9.16685Z" />
    </symbol>

    <symbol id="backup" viewBox="1 1 18 18" xmlns="http://www.w3.org/2000/svg">
        <path d="M10 2C12.817 2 14.415 3.923 14.647 6.246H14.717C16.532 6.246 18 7.758 18 9.623C18 9.718 17.996 9.813 17.989 9.906C17.6667 9.50394 17.292 9.14677 16.875 8.844C16.565 7.911 15.712 7.246 14.718 7.246H14.647C14.3991 7.246 14.16 7.15392 13.9762 6.98762C13.7923 6.82133 13.6768 6.59266 13.652 6.346C13.45 4.325 12.109 3 10 3C7.886 3 6.551 4.316 6.348 6.345C6.32344 6.59184 6.20801 6.82075 6.02414 6.98725C5.84026 7.15376 5.60106 7.24598 5.353 7.246H5.283C4.027 7.246 3 8.304 3 9.623C3 10.943 4.028 12 5.282 12H7.948C7.85953 12.3274 7.8003 12.6621 7.771 13H5.282C3.469 13 2 11.488 2 9.623C2 7.82 3.373 6.347 5.102 6.251L5.353 6.246C5.587 3.908 7.183 2 10 2ZM13.5 9C14.6935 9 15.8381 9.47411 16.682 10.318C17.5259 11.1619 18 12.3065 18 13.5C18 14.6935 17.5259 15.8381 16.682 16.682C15.8381 17.5259 14.6935 18 13.5 18C12.3065 18 11.1619 17.5259 10.318 16.682C9.47411 15.8381 9 14.6935 9 13.5C9 12.3065 9.47411 11.1619 10.318 10.318C11.1619 9.47411 12.3065 9 13.5 9V9ZM15.102 13.898C15.2076 14.0036 15.3507 14.0629 15.5 14.0629C15.6493 14.0629 15.7924 14.0036 15.898 13.898C16.0036 13.7924 16.0629 13.6493 16.0629 13.5C16.0629 13.3507 16.0036 13.2076 15.898 13.102L13.898 11.102C13.8458 11.0496 13.7838 11.0081 13.7155 10.9797C13.6472 10.9514 13.5739 10.9368 13.5 10.9368C13.4261 10.9368 13.3528 10.9514 13.2845 10.9797C13.2162 11.0081 13.1542 11.0496 13.102 11.102L11.102 13.102C11.0497 13.1543 11.0083 13.2163 10.98 13.2846C10.9517 13.3529 10.9371 13.4261 10.9371 13.5C10.9371 13.5739 10.9517 13.6471 10.98 13.7154C11.0083 13.7837 11.0497 13.8457 11.102 13.898C11.1543 13.9503 11.2163 13.9917 11.2846 14.02C11.3529 14.0483 11.4261 14.0629 11.5 14.0629C11.5739 14.0629 11.6471 14.0483 11.7154 14.02C11.7837 13.9917 11.8457 13.9503 11.898 13.898L13 12.796V15.5C13 15.6326 13.0527 15.7598 13.1464 15.8536C13.2402 15.9473 13.3674 16 13.5 16C13.6326 16 13.7598 15.9473 13.8536 15.8536C13.9473 15.7598 14 15.6326 14 15.5V12.796L15.102 13.898Z" />
    </symbol>

    <symbol id="update" viewBox="0 0 36 36" xmlns="http://www.w3.org/2000/svg">
        <path d="M19.5 28.1H16.6C16.1 28.1 15.7 27.8 15.6 27.3L15.1 25.5L14.7 25.3L13.1 26.2C12.7 26.4 12.2 26.4 11.9 26L9.79995 23.9C9.49995 23.6 9.39995 23.1 9.59995 22.7L10.5 21.1L10.3 20.7L8.49995 20.2C8.09995 20.1 7.69995 19.7 7.69995 19.2V16.3C7.69995 15.8 7.99995 15.4 8.49995 15.3L10.3 14.8L10.5 14.4L9.59995 12.8C9.39995 12.4 9.39995 11.9 9.79995 11.6L11.9 9.50002C12.2 9.20002 12.7 9.10002 13.1 9.30002L14.7 10.2L15.1 10L15.6 8.20002C15.7 7.80002 16.1 7.40002 16.6 7.40002H19.5C20 7.40002 20.4 7.70002 20.5 8.20002L21 10L21.4 10.2L23 9.30002C23.4 9.10002 23.9 9.10002 24.2 9.50002L26.2999 11.6C26.5999 11.9 26.7 12.4 26.5 12.8L25.6 14.4L25.7999 14.8L27.6 15.3C28 15.4 28.4 15.8 28.4 16.3V19.2C28.4 19.7 28.1 20.1 27.6 20.2L25.7999 20.7L25.6 21.1L26.5 22.7C26.7 23.1 26.6999 23.6 26.2999 23.9L24.2 26C23.9 26.3 23.4 26.4 23 26.2L21.4 25.3L21 25.5L20.5 27.3C20.3 27.8 19.9 28.1 19.5 28.1ZM17.3 26.1H18.7L19.2 24L19.7 23.8C20.1 23.7 20.4 23.5 20.8 23.4L21.3 23.1L23.2 24.2L24.2 23.2L23.1 21.3L23.4 20.8C23.6 20.5 23.6999 20.1 23.7999 19.7L24 19.2L26.1 18.7V17.3L24 16.8L23.7999 16.3C23.6999 15.9 23.5 15.6 23.4 15.2L23.1 14.7L24.2 12.8L23.2 11.8L21.3 12.9L20.8 12.6C20.5 12.4 20.1 12.3 19.7 12.2L19.2 12L18.7 9.90002H17.3L16.8 12L16.3 12.2C15.9 12.3 15.6 12.5 15.2 12.6L14.7 12.9L12.8 11.8L11.8 12.8L12.9 14.7L12.6 15.2C12.4 15.5 12.3 15.9 12.2 16.3L12 16.8L9.89995 17.3V18.7L12 19.2L12.2 19.7C12.3 20.1 12.5 20.4 12.6 20.8L12.9 21.3L11.8 23.2L12.8 24.2L14.7 23.1L15.2 23.4C15.5 23.6 15.9 23.7 16.3 23.8L16.8 24L17.3 26.1Z" />
        <path d="M18 22.3C15.6 22.3 13.7 20.4 13.7 18C13.7 15.6 15.6 13.7 18 13.7C20.4 13.7 22.3 15.6 22.3 18C22.3 20.4 20.4 22.3 18 22.3ZM18 15.7C16.7 15.7 15.7 16.7 15.7 18C15.7 19.3 16.7 20.3 18 20.3C19.3 20.3 20.3 19.3 20.3 18C20.3 16.7 19.3 15.7 18 15.7V15.7Z" />
        <path d="M18 2C17.4 2 17 2.4 17 3C17 3.6 17.4 4 18 4C25.7 4 32 10.3 32 18C32 25.7 25.7 32 18 32C10.3 32 4 25.7 4 18C4 15.2 4.8 12.5 6.4 10.2V11.4C6.4 12 6.8 12.4 7.4 12.4C8 12.4 8.4 12 8.4 11.4V6.4H3.4C2.8 6.4 2.4 6.8 2.4 7.4C2.4 8 2.8 8.4 3.4 8.4H5.2C3.1 11.1 2 14.5 2 18C2 26.8 9.2 34 18 34C26.8 34 34 26.8 34 18C34 9.2 26.8 2 18 2Z" />
    </symbol>

    <symbol id="medal" viewBox="0 0 64 64" xmlns="http://www.w3.org/2000/svg">
        <path d="M32.001 27.927L28.755 37.916H18.251L26.749 44.09L23.501 54.078L32.001 47.906L40.499 54.078L37.251 44.09L45.749 37.916H35.245L32.001 27.927V27.927ZM34.839 43.047L36.591 48.443L32.001 45.107L27.407 48.443L29.163 43.047L24.571 39.711H30.247L32.001 34.315L33.755 39.711H39.429L34.839 43.047Z" />
        <path d="M44.657 26.519V17.821C44.657 17.457 44.458 17.151 44.176 16.961L54 2H35.165L32.001 6.746L28.837 2H10L19.823 16.96C19.678 17.0526 19.5583 17.1798 19.4745 17.33C19.3907 17.4803 19.3456 17.649 19.343 17.821V26.519C14.862 30.187 12 35.758 12 42C12 53.045 20.955 62 32 62H32.001C32.682 62 33.355 61.965 34.018 61.898C44.115 60.887 52 52.365 52 42C52 35.758 49.138 30.187 44.657 26.519ZM40.826 3H47.154L38.329 16.239L35.165 11.493L40.826 3ZM41.493 20.985L42.466 19.527C42.518 19.652 42.548 19.788 42.548 19.931V24.15C42.5457 24.4135 42.4389 24.6653 42.251 24.85C39.251 23.052 35.752 22 32 22C28.3874 22.0008 24.8433 22.9865 21.749 24.851C21.5611 24.6659 21.4543 24.4138 21.452 24.15V19.931C21.452 19.788 21.482 19.651 21.534 19.527L22.507 20.986H41.493V20.985ZM16.846 3H23.174L34.498 19.985H28.17L16.846 3ZM32 59C22.612 59 15 51.389 15 42C15 32.611 22.612 25 32 25C41.388 25 49 32.611 49 42C49 51.389 41.388 59 32 59Z" />
    </symbol>

    <symbol id="viber" viewBox="0 0 32 32" xmlns="http://www.w3.org/2000/svg">
        <path d="M15.1981 0.00502257C12.6301 0.0360226 7.10906 0.458023 4.02106 3.29102C1.72406 5.56702 0.922058 8.93202 0.828058 13.093C0.750058 17.239 0.656058 25.025 8.16106 27.145V30.374C8.16106 30.374 8.11406 31.666 8.96806 31.931C10.0201 32.264 10.6191 31.27 11.6191 30.202L13.4841 28.093C18.6191 28.52 22.5521 27.536 23.0051 27.39C24.0471 27.057 29.9161 26.307 30.8751 18.52C31.8591 10.478 30.3961 5.41102 27.7551 3.11902H27.7391C26.9421 2.38502 23.7391 0.0510226 16.5831 0.0250226C16.5831 0.0250226 16.0521 -0.0109774 15.1981 0.00402257V0.00502257ZM15.2861 2.26602C16.0151 2.26102 16.4581 2.29202 16.4581 2.29202C22.5151 2.30802 25.4061 4.13102 26.0881 4.74502C28.3121 6.65102 29.4581 11.219 28.6191 17.933C27.8221 24.443 23.0621 24.855 22.1811 25.136C21.8061 25.256 18.3421 26.11 13.9781 25.829C13.9781 25.829 10.7281 29.751 9.71206 30.761C9.55106 30.938 9.36306 30.99 9.24306 30.964C9.07106 30.922 9.01906 30.709 9.02906 30.417L9.06006 25.058C2.69506 23.298 3.07006 16.657 3.13806 13.188C3.21606 9.71902 3.86706 6.88102 5.80506 4.95902C8.41406 2.60002 13.1021 2.28202 15.2841 2.26602H15.2861ZM15.7661 5.73402C15.7137 5.73349 15.6617 5.74334 15.6131 5.76299C15.5646 5.78264 15.5204 5.81171 15.4831 5.84853C15.4458 5.88534 15.4162 5.92916 15.3959 5.97748C15.3757 6.02579 15.3652 6.07763 15.3651 6.13002C15.3651 6.35402 15.5471 6.53102 15.7661 6.53102C16.7576 6.51217 17.743 6.68979 18.6655 7.05365C19.588 7.41751 20.4294 7.9604 21.1411 8.65102C22.5941 10.062 23.3021 11.958 23.3291 14.437C23.3291 14.656 23.5061 14.838 23.7301 14.838V14.822C23.8356 14.8223 23.937 14.7808 24.0121 14.7066C24.0873 14.6325 24.13 14.5316 24.1311 14.426C24.1796 13.2592 23.9904 12.0946 23.5749 11.0032C23.1594 9.91174 22.5263 8.91618 21.7141 8.07702C20.1311 6.53002 18.1251 5.73302 15.7661 5.73302V5.73402ZM10.4951 6.65102C10.212 6.60966 9.92333 6.66648 9.67706 6.81202H9.65606C9.08432 7.14716 8.56927 7.57074 8.13006 8.06702C7.76506 8.48902 7.56706 8.91602 7.51506 9.32702C7.48406 9.57202 7.50506 9.81702 7.57806 10.051L7.60406 10.067C8.01506 11.275 8.55206 12.437 9.20806 13.531C10.0531 15.068 11.093 16.4894 12.3021 17.76L12.3381 17.812L12.3951 17.854L12.4311 17.896L12.4731 17.932C13.7483 19.1446 15.1731 20.1894 16.7131 21.041C18.4731 21.999 19.5411 22.452 20.1821 22.64V22.65C20.3701 22.707 20.5411 22.733 20.7131 22.733C21.2593 22.693 21.7765 22.4712 22.1821 22.103C22.6761 21.6637 23.0949 21.1465 23.4221 20.572V20.562C23.7291 19.984 23.6251 19.437 23.1821 19.067C22.2949 18.2915 21.3355 17.6027 20.3171 17.01C19.6351 16.64 18.9421 16.864 18.6611 17.239L18.0621 17.994C17.7551 18.369 17.1971 18.317 17.1971 18.317L17.1811 18.327C13.0201 17.264 11.9101 13.051 11.9101 13.051C11.9101 13.051 11.8581 12.478 12.2431 12.186L12.9931 11.582C13.3521 11.29 13.6021 10.598 13.2171 9.91502C12.6285 8.89518 11.9412 7.93557 11.1651 7.05002C10.9954 6.84125 10.7574 6.69921 10.4931 6.64902L10.4951 6.65102ZM16.4581 7.83902C15.9271 7.83902 15.9271 8.64102 16.4631 8.64102C17.1233 8.65173 17.775 8.79246 18.3809 9.05516C18.9868 9.31785 19.5349 9.69737 19.9941 10.172C20.4129 10.634 20.7347 11.1754 20.9405 11.7641C21.1463 12.3527 21.2318 12.9767 21.1921 13.599C21.1939 13.7043 21.2369 13.8048 21.3118 13.8788C21.3868 13.9528 21.4877 13.9945 21.5931 13.995L21.6091 14.016C21.7152 14.0152 21.8167 13.9727 21.8917 13.8977C21.9668 13.8227 22.0093 13.7211 22.0101 13.615C22.0461 12.026 21.5521 10.693 20.5831 9.62502C19.6091 8.55702 18.2501 7.95802 16.5151 7.83902H16.4581V7.83902ZM17.1151 9.99502C16.5681 9.97902 16.5471 10.797 17.0891 10.813C18.4071 10.881 19.0471 11.547 19.1311 12.917C19.1329 13.021 19.1753 13.1202 19.2494 13.1932C19.3234 13.2663 19.423 13.3075 19.5271 13.308H19.5431C19.5965 13.3057 19.649 13.2928 19.6974 13.27C19.7459 13.2472 19.7893 13.215 19.8251 13.1753C19.8609 13.1355 19.8885 13.089 19.9062 13.0385C19.9239 12.988 19.9313 12.9344 19.9281 12.881C19.8341 11.095 18.8601 10.089 17.1311 9.99602H17.1151V9.99502Z" />
    </symbol>

    <symbol id="whatsapp" viewBox="0 0 32 32" xmlns="http://www.w3.org/2000/svg">
        <path d="M23.328 19.177C22.927 18.974 20.974 18.021 20.609 17.885C20.244 17.755 19.979 17.687 19.713 18.088C19.453 18.479 18.687 19.374 18.453 19.635C18.219 19.896 17.989 19.916 17.594 19.739C17.193 19.536 15.912 19.119 14.391 17.755C13.203 16.698 12.412 15.396 12.177 14.995C11.943 14.599 12.151 14.375 12.349 14.177C12.531 13.995 12.75 13.719 12.953 13.479C13.146 13.239 13.208 13.078 13.349 12.818C13.479 12.537 13.412 12.318 13.313 12.12C13.214 11.922 12.417 9.959 12.084 9.177C11.766 8.401 11.433 8.5 11.188 8.5C10.959 8.479 10.693 8.479 10.428 8.479C10.163 8.479 9.73 8.578 9.365 8.958C9 9.359 7.969 10.317 7.969 12.255C7.969 14.198 9.396 16.078 9.594 16.359C9.797 16.619 12.401 20.619 16.396 22.338C17.349 22.739 18.089 22.979 18.667 23.177C19.62 23.479 20.49 23.437 21.177 23.338C21.937 23.213 23.531 22.374 23.865 21.437C24.204 20.494 24.204 19.713 24.105 19.536C24.006 19.354 23.746 19.255 23.345 19.078L23.328 19.177ZM16.083 29H16.062C13.697 29 11.359 28.359 9.317 27.161L8.838 26.875L3.838 28.177L5.182 23.312L4.859 22.812C3.53846 20.7124 2.8379 18.2824 2.838 15.802C2.838 8.542 8.781 2.62 16.093 2.62C19.635 2.62 22.958 4 25.458 6.5C26.6913 7.71859 27.6695 9.17058 28.3357 10.7713C29.0018 12.3719 29.3426 14.0892 29.338 15.823C29.328 23.078 23.39 29 16.088 29H16.083ZM27.359 4.599C24.317 1.661 20.317 0 16.062 0C7.286 0 0.14 7.115 0.135 15.859C0.135 18.651 0.864 21.375 2.26 23.786L0 32L8.448 29.797C10.7883 31.0588 13.4042 31.7224 16.063 31.729H16.068C24.849 31.729 31.995 24.614 32 15.864C32 11.63 30.349 7.645 27.339 4.65L27.359 4.599Z" />
    </symbol>

    <symbol id="telegram" viewBox="1 1 22 22" xmlns="http://www.w3.org/2000/svg">
        <path d="M20.665 3.71694L2.93497 10.5539C1.72497 11.0399 1.73197 11.7149 2.71297 12.0159L7.26497 13.4359L17.797 6.79094C18.295 6.48794 18.75 6.65094 18.376 6.98294L9.84297 14.6839H9.84097L9.84297 14.6849L9.52897 19.3769C9.98897 19.3769 10.192 19.1659 10.45 18.9169L12.661 16.7669L17.26 20.1639C18.108 20.6309 18.717 20.3909 18.928 19.3789L21.947 5.15094C22.256 3.91194 21.474 3.35094 20.665 3.71694V3.71694Z" />
    </symbol>

    <symbol id="phone" viewBox="2 2 20 20" xmlns="http://www.w3.org/2000/svg">
        <path d="M20.487 17.14L16.422 13.444C16.2299 13.2693 15.9774 13.1762 15.7178 13.1842C15.4583 13.1922 15.212 13.3008 15.031 13.487L12.638 15.948C12.062 15.838 10.904 15.477 9.71204 14.288C8.52004 13.095 8.15904 11.934 8.05204 11.362L10.511 8.968C10.6975 8.78712 10.8062 8.54082 10.8142 8.2812C10.8222 8.02159 10.7289 7.76904 10.554 7.57699L6.85904 3.51299C6.68408 3.32035 6.44092 3.2035 6.18119 3.18725C5.92146 3.17101 5.66564 3.25665 5.46804 3.42599L3.29804 5.28699C3.12515 5.46051 3.02196 5.69145 3.00804 5.93599C2.99304 6.18599 2.70704 12.108 7.29904 16.702C11.305 20.707 16.323 21 17.705 21C17.907 21 18.031 20.994 18.064 20.992C18.3086 20.9783 18.5394 20.8747 18.712 20.701L20.572 18.53C20.742 18.333 20.8283 18.0774 20.8124 17.8177C20.7966 17.558 20.6798 17.3148 20.487 17.14V17.14Z" />
    </symbol>

    <symbol id="graph-up" viewBox="0 0 16 16" xmlns="http://www.w3.org/2000/svg">
        <path fill-rule="evenodd" clip-rule="evenodd" d="M0 0H1V15H16V16H0V0ZM10 3.5C10 3.36739 10.0527 3.24021 10.1464 3.14645C10.2402 3.05268 10.3674 3 10.5 3H14.5C14.6326 3 14.7598 3.05268 14.8536 3.14645C14.9473 3.24021 15 3.36739 15 3.5V7.5C15 7.63261 14.9473 7.75979 14.8536 7.85355C14.7598 7.94732 14.6326 8 14.5 8C14.3674 8 14.2402 7.94732 14.1464 7.85355C14.0527 7.75979 14 7.63261 14 7.5V4.9L10.387 9.317C10.3428 9.37099 10.2877 9.41511 10.2254 9.44655C10.1631 9.47798 10.0949 9.49602 10.0252 9.4995C9.9555 9.50299 9.88584 9.49184 9.8207 9.46678C9.75556 9.44172 9.69639 9.4033 9.647 9.354L7.06 6.767L3.404 11.794C3.32402 11.8957 3.20774 11.9624 3.07958 11.9802C2.95143 11.9979 2.82138 11.9653 2.71677 11.8892C2.61216 11.8131 2.54113 11.6994 2.51861 11.572C2.49609 11.4446 2.52383 11.3134 2.596 11.206L6.596 5.706C6.63846 5.64751 6.69309 5.59893 6.75613 5.56359C6.81917 5.52825 6.88912 5.50699 6.96117 5.50129C7.03322 5.49559 7.10564 5.50557 7.17346 5.53055C7.24128 5.55554 7.30287 5.59492 7.354 5.646L9.963 8.256L13.445 4H10.5C10.3674 4 10.2402 3.94732 10.1464 3.85355C10.0527 3.75979 10 3.63261 10 3.5Z" />
    </symbol>

    <symbol id="robot" viewBox="1 1 16 16" xmlns="http://www.w3.org/2000/svg">
        <path d="M5.27344 5.76562C5.27344 6.04535 5.38456 6.31361 5.58235 6.5114C5.78014 6.70919 6.0484 6.82031 6.32812 6.82031C6.60785 6.82031 6.87611 6.70919 7.0739 6.5114C7.27169 6.31361 7.38281 6.04535 7.38281 5.76562C7.38281 5.4859 7.27169 5.21764 7.0739 5.01985C6.87611 4.82206 6.60785 4.71094 6.32812 4.71094C6.0484 4.71094 5.78014 4.82206 5.58235 5.01985C5.38456 5.21764 5.27344 5.4859 5.27344 5.76562ZM14.9766 1.125H3.02344C2.7123 1.125 2.46094 1.37637 2.46094 1.6875V13.2891C2.46094 13.6002 2.7123 13.8516 3.02344 13.8516H14.9766C15.2877 13.8516 15.5391 13.6002 15.5391 13.2891V1.6875C15.5391 1.37637 15.2877 1.125 14.9766 1.125ZM14.4141 12.7266H3.58594V2.25H14.4141V12.7266ZM10.6172 5.76562C10.6172 6.04535 10.7283 6.31361 10.9261 6.5114C11.1239 6.70919 11.3922 6.82031 11.6719 6.82031C11.9516 6.82031 12.2199 6.70919 12.4177 6.5114C12.6154 6.31361 12.7266 6.04535 12.7266 5.76562C12.7266 5.4859 12.6154 5.21764 12.4177 5.01985C12.2199 4.82206 11.9516 4.71094 11.6719 4.71094C11.3922 4.71094 11.1239 4.82206 10.9261 5.01985C10.7283 5.21764 10.6172 5.4859 10.6172 5.76562ZM15.0152 15.5391H2.98477C2.69473 15.5391 2.46094 15.7904 2.46094 16.1016V16.7344C2.46094 16.8117 2.51895 16.875 2.59102 16.875H15.4072C15.4793 16.875 15.5373 16.8117 15.5373 16.7344V16.1016C15.5391 15.7904 15.3053 15.5391 15.0152 15.5391V15.5391ZM11.6719 8.92969H6.32812C6.25078 8.92969 6.1875 8.99297 6.1875 9.07031V10.125C6.1875 10.2023 6.25078 10.2656 6.32812 10.2656H11.6719C11.7492 10.2656 11.8125 10.2023 11.8125 10.125V9.07031C11.8125 8.99297 11.7492 8.92969 11.6719 8.92969Z" />
    </symbol>

    <symbol id="sitemap" viewBox="1 1 30 30" xmlns="http://www.w3.org/2000/svg">
        <path d="M12 5V13H15V15H5V19H2V27H10V19H7V17H15V19H12V27H20V19H17V17H25V19H22V27H30V19H27V15H17V13H20V5H12ZM14 7H18V11H14V7ZM4 21H8V25H4V21ZM14 21H18V25H14V21ZM24 21H28V25H24V21Z" />
    </symbol>

    <symbol id="document-copy" viewBox="0 0 17 16" xmlns="http://www.w3.org/2000/svg">
        <path fill-rule="evenodd" clip-rule="evenodd" d="M10.02 0.0620117H5.026V13H16.017V2.99101H10.022V0.0620117H10.02ZM6.998 10.096V8.93701L14.018 9.03301V10.03L6.998 10.096V10.096ZM7.012 7.97601V7.00601H14.032V7.97601H7.012ZM14.017 6.03101H6.96V4.93801H14.016V6.03101H14.017Z" />
        <path fill-rule="evenodd" clip-rule="evenodd" d="M11.0599 0.0620117V1.90601H15.8119L11.0599 0.0620117Z" />
        <path fill-rule="evenodd" clip-rule="evenodd" d="M2.06299 2.06201V16H12.949V13.979H3.94499V2.06201H2.06299Z" />
    </symbol>

    <symbol id="list-check" viewBox="2 2 20 20" xmlns="http://www.w3.org/2000/svg">
        <path d="M15 19.411L12.3 16.711L13.714 15.295L15 16.583L20.008 11.583L21.419 13L15 19.41V19.411ZM11 17H2V15H11V17ZM15 13H2V11H15V13ZM15 9H2V7H15V9Z" />
    </symbol>

    <symbol id="storage" viewBox="0 0 36 36" xmlns="http://www.w3.org/2000/svg">
        <path d="M17.91 18.28C25.99 18.28 32.57 16.54 33 14.34V8.59003C32.57 10.79 26 12.53 17.91 12.53C13.9687 12.6062 10.0382 12.0905 6.25 11V9.00003C10.0393 10.0837 13.9697 10.5927 17.91 10.51C26 10.53 32.52 8.79003 33 6.61003C32.8 3.20003 23.52 2.28003 18 2.28003C12.48 2.28003 3 3.21003 3 6.71003V29.29C3 32.78 12.43 33.72 18 33.72C23.57 33.72 33 32.79 33 29.29V24.09C32.57 26.28 26 28 17.91 28C13.9712 28.0925 10.0408 27.5936 6.25 26.52V24.52C10.0408 25.5936 13.9712 26.0925 17.91 26C26 26 32.57 24.28 33 22.09V16.34C32.57 18.54 26 20.28 17.91 20.28C13.9697 20.3627 10.0393 19.8537 6.25 18.77V16.77C10.0393 17.8537 13.9697 18.3627 17.91 18.28V18.28Z" />
    </symbol>

    <symbol id="lock" viewBox="1 1 22 22" xmlns="http://www.w3.org/2000/svg">
        <path d="M12 2C9.243 2 7 4.243 7 7V9H6C4.897 9 4 9.897 4 11V20C4 21.103 4.897 22 6 22H18C19.103 22 20 21.103 20 20V11C20 9.897 19.103 9 18 9H17V7C17 4.243 14.757 2 12 2ZM9 7C9 5.346 10.346 4 12 4C13.654 4 15 5.346 15 7V9H9V7ZM18.002 20H13V17.722C13.595 17.375 14 16.737 14 16C14 14.897 13.103 14 12 14C10.897 14 10 14.897 10 16C10 16.736 10.405 17.375 11 17.722V20H6V11H18L18.002 20V20Z" />
    </symbol>

    <symbol id="tool" viewBox="2 2 28 28" xmlns="http://www.w3.org/2000/svg">
        <path d="M27.0406 7.64695C27.0312 7.63757 25.1312 9.5157 21.3499 13.2907L18.6968 10.6376L24.3499 4.98445C21.3749 3.19383 17.5531 3.6532 15.0749 6.13132C14.1277 7.07806 13.446 8.25723 13.0982 9.55057C12.7505 10.8439 12.7489 12.2059 13.0937 13.5001L13.1499 13.7094L4.29058 22.5657C4.09683 22.7594 4.09683 23.0782 4.29058 23.2719L8.70932 27.6907C8.90307 27.8844 9.22182 27.8844 9.41557 27.6907L18.2687 18.8376L18.4781 18.8938C21.0937 19.5907 23.9031 18.8657 25.8531 16.9157C28.3343 14.4376 28.7937 10.6157 27.0406 7.64695V7.64695Z" />
    </symbol>

    <symbol id="rouble" viewBox="0 0 22 24" xmlns="http://www.w3.org/2000/svg">
        <g clip-path="url(#clip0_503_137)">
            <path d="M17.7781 7.449C17.7991 6.93669 17.7114 6.42574 17.5206 5.94983C17.3297 5.47392 17.0402 5.04386 16.6711 4.688L16.6701 4.687C16.2771 4.32609 15.8163 4.0468 15.3146 3.86536C14.8128 3.68391 14.28 3.60391 13.7471 3.63H13.7561H8.30207V11.266H13.7561C14.2882 11.2908 14.82 11.2099 15.3206 11.0279C15.8213 10.846 16.281 10.5666 16.6731 10.206L16.6701 10.209C17.04 9.85224 17.3301 9.42105 17.5211 8.9439C17.7121 8.46675 17.7997 7.9545 17.7781 7.441V7.448V7.449ZM21.8181 7.449C21.8547 8.44503 21.6815 9.43765 21.3098 10.3624C20.938 11.2872 20.3759 12.1235 19.6601 12.817L19.6581 12.819C18.9141 13.5213 18.0369 14.0672 17.0783 14.4244C16.1197 14.7817 15.0992 14.9431 14.0771 14.899H14.0921H8.29707V16.91H16.9261C17.2161 16.91 17.4511 17.145 17.4511 17.435V17.457V17.456V19.659C17.4511 19.949 17.2161 20.184 16.9261 20.184H16.9041H16.9051H8.29707V23.475C8.29471 23.6159 8.23709 23.7501 8.13664 23.8489C8.03619 23.9477 7.90095 24.003 7.76007 24.003H4.88607C4.74683 24.003 4.6133 23.9477 4.51484 23.8492C4.41638 23.7508 4.36107 23.6172 4.36107 23.478V23.456V23.457V20.184H0.52207C0.382832 20.184 0.249296 20.1287 0.150839 20.0302C0.0523827 19.9318 -0.00292968 19.7982 -0.00292968 19.659V19.637V19.638V17.456V17.435C-0.00292968 17.145 0.23207 16.91 0.52207 16.91H0.54407H0.54307H4.36107V14.899H0.52207C0.382832 14.899 0.249296 14.8437 0.150839 14.7452C0.0523827 14.6468 -0.00292968 14.5132 -0.00292968 14.374V14.352V14.353V11.813V11.807C-0.00294947 11.6661 0.0523901 11.5309 0.151159 11.4304C0.249927 11.33 0.384215 11.2724 0.52507 11.27H0.54407H0.54307H4.36107V0.55V0.529C4.36107 0.239 4.59607 0.00400011 4.88607 0.00400011H4.90807H4.90707H14.0941C15.1146 -0.0378963 16.1332 0.12491 17.0898 0.482824C18.0464 0.840738 18.9217 1.38652 19.6641 2.088L19.6601 2.084C20.377 2.77875 20.9396 3.61669 21.3113 4.5433C21.6829 5.4699 21.8553 6.46438 21.8171 7.462V7.449H21.8181Z" />
        </g>
        <defs>
            <clipPath id="clip0_503_137">
                <rect width="22" height="24" fill="white"/>
            </clipPath>
        </defs>
    </symbol>

    <symbol id="home" viewBox="0 0 28 28" xmlns="http://www.w3.org/2000/svg">
        <path d="M25.8807 13.8086L14.6179 2.55393C14.5368 2.47268 14.4404 2.40821 14.3344 2.36423C14.2284 2.32025 14.1147 2.29761 13.9999 2.29761C13.8851 2.29761 13.7714 2.32025 13.6654 2.36423C13.5593 2.40821 13.463 2.47268 13.3819 2.55393L2.11904 13.8086C1.79092 14.1367 1.60498 14.5825 1.60498 15.0473C1.60498 16.0125 2.38975 16.7973 3.35498 16.7973H4.5417V24.8282C4.5417 25.3121 4.93271 25.7032 5.4167 25.7032H12.2499V19.5782H15.3124V25.7032H22.5831C23.0671 25.7032 23.4581 25.3121 23.4581 24.8282V16.7973H24.6448C25.1097 16.7973 25.5554 16.6141 25.8835 16.2832C26.5643 15.5996 26.5643 14.4922 25.8807 13.8086V13.8086Z" />
    </symbol>

    <svg id="map" viewBox="0 0 30 30" xmlns="http://www.w3.org/2000/svg">
        <path d="M15 0C8.75445 0 3.69141 5.06302 3.69141 11.3086C3.69141 13.3973 4.10023 15.5545 5.27343 17.1094L15 30L24.7266 17.1094C25.7922 15.6971 26.3086 13.2005 26.3086 11.3086C26.3086 5.06302 21.2456 0 15 0ZM15 6.54968C17.6279 6.54968 19.7589 8.6807 19.7589 11.3086C19.7589 13.9365 17.6279 16.0675 15 16.0675C12.3721 16.0675 10.2411 13.9365 10.2411 11.3086C10.2411 8.6807 12.3721 6.54968 15 6.54968Z" />
    </svg>
</svg>
